The ongoing war between the canine and feline species is put on hold when they join forces to thwart a rogue cat spy with her own sinister plans for conquest.
 
http://www.imdb.com/title/tt1287468/

Subtitles (srt) : Dutch, English.

Covers included.

In de eeuwenoude strijd tussen katten en honden, is er nu een kattige kat die het flink uit de klauwen laat lopen. Kitty Galore, voorheen een agent voor de kattenspionageorganisatie MIAUWS, is voor zichzelf begonnen en heeft een duivels plan bedacht. Ze wil niet alleen alle honden voor haar in het stof laten bijten, maar ook haar voormalige poezenkameraden ten gronde richten en één grote krabpaal van de wereld maken. Katten en honden worden gedwongen de poten ineen te slaan om deze bedreiging af te wenden. Voor het eerst in de geschiedenis besluiten ze elkaars bondgenoten te zijn om henzelf en hun baasjes te redden.
 
http://www.moviemeter.nl/film/62892

Ondertitels (srt) : Engels, Nederlands.

Hoesjes bijgevoegd.

General
Complete name                    : Cats and Dogs-The Revenge of Kitty Galore-XviD-DVDRip[Eng]2010 2Lions-Team\Cats and Dogs-The Revenge of Kitty Galore-XviD-DVDRip[Eng]2010 2Lions-Team.avi
Format                           : AVI
Format/Info                      : Audio Video Interleave
File size                        : 1.36 GiB
Duration                         : 1h 22mn
Overall bit rate                 : 2 368 Kbps
Writing application              : VirtualDubMod 1.5.4.1 (build 2178/release)
Writing library                  : VirtualDubMod build 2178/release
Source                           : Cats.and.Dogs.The.Revenge.of.Kitty.Galore.DVDR-BOW

Video
ID                               : 0
Format                           : MPEG-4 Visual
Format profile                   : Simple@L3
Format settings, BVOP            : No
Format settings, QPel            : No
Format settings, GMC             : No warppoints
Format settings, Matrix          : Default (H.263)
Codec ID                         : XVID
Codec ID/Hint                    : XviD
Duration                         : 1h 22mn
Bit rate                         : 1 975 Kbps
Width                            : 720 pixels
Height                           : 400 pixels
Display aspect ratio             : 16:9
Frame rate                       : 23.976 fps
Color space                      : YUV
Chroma subsampling               : 4:2:0
Bit depth                        : 8 bits
Scan type                        : Progressive
Bits/(Pixel*Frame)               : 0.286
Stream size                      : 1.14 GiB (83%)
Writing library                  : XviD 1.1.2 (UTC 2006-11-01)

Audio
ID                               : 1
Format                           : AC-3
Format/Info                      : Audio Coding 3
Mode extension                   : CM (complete main)
Codec ID                         : 2000
Duration                         : 1h 22mn
Bit rate mode                    : Constant
Bit rate                         : 384 Kbps
Channel(s)                       : 6 channels
Channel positions                : Front: L C R, Side: L R, LFE
Sampling rate                    : 48.0 KHz
Bit depth                        : 16 bits
Stream size                      : 226 MiB (16%)
Alignment                        : Split accross interleaves
Interleave, duration             : 42 ms (1.00 video frame)
Interleave, preload duration     : 500 ms

Thanks to Sendleech for the source,and Simply ReleaseS for the Dutch subs.

Brought to you by Gollum.

DON T HIT AND RUN Niet gelijk afhaken als de FILM binnen is blijf seeden. 

Don`t quit after you finished the download, but keep seeding


There are fake torrents from uploaders who use our team name.
Those are not ours, or members from our team.
We 2Lions-Team are not responsible for the fake posts on our name

Wij  zijn niet verantwoordelijk voor die zieke FAKE posten die op onze naam worden gedaan.